<svg width="42" height="48" viewBox="0 0 42 48" fill="none" xmlns="http://www.w3.org/2000/svg">
<path d="M13.9927 4.96781L17.7121 0H27.9106L32.2483 5.29978L37.8462 9.93563V46.5938L17.7121 45.7087L13.9927 42.4046V4.96781Z" fill="#DBE1E8"/>
<path d="M-0.00909424 1.40625V46.5938C-0.00909424 47.37 0.620906 48 1.39716 48H16.6986L17.7122 45.7087V0H1.39716C0.620906 0 -0.00909424 0.63 -0.00909424 1.40625Z" fill="#F5F8F9"/>
<path d="M27.9106 0V8.52938C27.9106 9.30562 28.5406 9.93563 29.3168 9.93563H37.8462V9.46688C37.8462 9.09375 37.6981 8.73656 37.4347 8.47219L29.374 0.411563C29.1097 0.148125 28.7525 0 28.3793 0L27.9106 0Z" fill="#C7D1DB"/>
<path d="M8.49431 9.375H6.15994C5.38331 9.375 4.75368 8.74538 4.75368 7.96875C4.75368 7.19212 5.38331 6.5625 6.15994 6.5625H8.49431C9.27094 6.5625 9.90056 7.19212 9.90056 7.96875C9.90056 8.74538 9.27094 9.375 8.49431 9.375Z" fill="#B4B9F2"/>
<path d="M23.0246 7.96875C23.0246 8.745 22.3956 9.375 21.6184 9.375H14.1193C13.3431 9.375 12.7131 8.745 12.7131 7.96875C12.7131 7.1925 13.3431 6.5625 14.1193 6.5625H21.6184C22.3956 6.5625 23.0246 7.1925 23.0246 7.96875Z" fill="#B4B9F2"/>
<path d="M23.0246 13.5938C23.0246 14.37 22.3946 15 21.6184 15H6.15993C5.38368 15 4.75368 14.37 4.75368 13.5938C4.75368 12.8175 5.38368 12.1875 6.15993 12.1875H21.6184C22.3946 12.1875 23.0246 12.8175 23.0246 13.5938Z" fill="#B4B9F2"/>
<path d="M11.0771 20.625H6.16087C5.38425 20.625 4.75462 19.9954 4.75462 19.2188C4.75462 18.4421 5.38425 17.8125 6.16087 17.8125H11.0771C11.8537 17.8125 12.4834 18.4421 12.4834 19.2188C12.4834 19.9954 11.8537 20.625 11.0771 20.625Z" fill="#B4B9F2"/>
<path d="M23.0246 19.2188C23.0246 19.995 22.3946 20.625 21.6184 20.625H16.7021C15.9259 20.625 15.2959 19.995 15.2959 19.2188C15.2959 18.4425 15.9259 17.8125 16.7021 17.8125H21.6184C22.3946 17.8125 23.0246 18.4425 23.0246 19.2188Z" fill="#B4B9F2"/>
<path d="M23.0246 19.2188C23.0246 19.995 22.3946 20.625 21.6184 20.625H17.7118V17.8125H21.6184C22.3946 17.8125 23.0246 18.4425 23.0246 19.2188Z" fill="#7C83E7"/>
<path d="M23.0246 13.5938C23.0246 14.37 22.3946 15 21.6184 15H17.7118V12.1875H21.6184C22.3946 12.1875 23.0246 12.8175 23.0246 13.5938Z" fill="#7C83E7"/>
<path d="M21.6184 9.375H17.7118V6.5625H21.6184C22.3956 6.5625 23.0246 7.1925 23.0246 7.96875C23.0246 8.745 22.3956 9.375 21.6184 9.375Z" fill="#7C83E7"/>
<path d="M29.5807 37.8515L27.6345 38.3737L16.5542 35.4009C15.9187 35.2318 15.2197 35.5181 14.906 36.1769C14.8198 36.3578 14.7832 36.5584 14.7832 36.7588V46.0853C14.7832 47.1431 15.6408 48 16.6986 48H27.6345L29.5807 45.4845V37.8515Z" fill="#E62E6B"/>
<path d="M40.4856 36.7588V46.0853C40.4856 47.1431 39.6281 48 38.5703 48H27.6344V38.3737L38.7147 35.4009C39.3502 35.2318 40.0492 35.5181 40.3629 36.1769C40.4492 36.3578 40.4856 36.5584 40.4856 36.7588Z" fill="#B32453"/>
<path d="M27.6344 21.9094H25.7575C23.1355 21.9094 21.01 24.0349 21.01 26.6569V29.2978H23.8225V26.6569C23.8225 25.5882 24.6889 24.7219 25.7575 24.7219H27.6344L28.9234 23.1889L27.6344 21.9094Z" fill="#4D578C"/>
<path d="M29.4457 24.7219H27.6344V21.9094H29.4457C32.0677 21.9094 34.1931 24.0349 34.1931 26.6569V29.2978H31.3806V26.6569C31.3806 25.5882 30.5144 24.7219 29.4457 24.7219Z" fill="#333E73"/>
<path d="M27.6344 26.8781H14.6003C13.8237 26.8781 13.1941 27.5077 13.1941 28.2844V36.3506C13.1941 36.9928 13.6291 37.5534 14.2507 37.7128L15.8322 38.1197L27.2697 41.1881C27.3888 41.22 27.5116 41.2359 27.6344 41.2359L30.2039 35.6822L27.6344 26.8781Z" fill="#FF6666"/>
<path d="M42.0091 28.2844V36.3506C42.0091 36.9872 41.5816 37.5441 40.9666 37.7091L27.9981 41.1881C27.8791 41.22 27.7563 41.2359 27.6344 41.2359V26.8781H40.6028C41.3796 26.8781 42.0091 27.5077 42.0091 28.2844Z" fill="#E62E6B"/>
<path d="M28.1707 38.4837L27.6345 37.4653C26.8573 37.4653 26.2282 38.0953 26.2282 38.8716V41.6953C26.2282 42.4716 26.8573 43.1016 27.6345 43.1016L28.1707 41.7618V38.4837Z" fill="#F5F8F9"/>
<path d="M27.6344 43.1016V37.4653C28.4106 37.4653 29.0406 38.0953 29.0406 38.8716V41.6953C29.0406 42.4716 28.4106 43.1016 27.6344 43.1016Z" fill="#DBE1E8"/>
</svg>
