<svg width="38" height="40" viewBox="0 0 38 40" fill="none" xmlns="http://www.w3.org/2000/svg">
<path d="M0.905518 10.625V38.8281C0.905518 39.4753 1.4302 40 2.07739 40H27.8586C28.5058 40 29.0305 39.4753 29.0305 38.8281V10.625L27.8046 9.84375H2.29974L0.905518 10.625Z" fill="#EDF5FF"/>
<path d="M29.0305 10.625V38.8281C29.0305 39.475 28.5055 40 27.8586 40H14.968V9.84375H27.8047L29.0305 10.625Z" fill="#CEE8FF"/>
<path d="M29.0305 3.51562C29.0305 2.86844 28.5058 2.34375 27.8586 2.34375H2.07739C1.4302 2.34375 0.905518 2.86844 0.905518 3.51562V10.625H29.0305V3.51562Z" fill="#FF7900"/>
<path d="M29.0305 3.51562V10.625H14.968V2.34375H27.8586C28.5055 2.34375 29.0305 2.86875 29.0305 3.51562Z" fill="#FF4800"/>
<path d="M6.72583 0C6.07864 0 5.55396 0.524687 5.55396 1.17188V4.29688C5.55396 4.94406 6.07864 5.46875 6.72583 5.46875C7.37302 5.46875 7.89771 4.94406 7.89771 4.29688V1.17188C7.89771 0.524687 7.37302 0 6.72583 0Z" fill="#FFAA17"/>
<path d="M12.1946 0C11.5474 0 11.0227 0.524687 11.0227 1.17188V4.29688C11.0227 4.94406 11.5474 5.46875 12.1946 5.46875C12.8418 5.46875 13.3665 4.94406 13.3665 4.29688V1.17188C13.3665 0.524687 12.8418 0 12.1946 0Z" fill="#FFAA17"/>
<path d="M17.6633 0C17.0161 0 16.4915 0.524687 16.4915 1.17188V4.29688C16.4915 4.94406 17.0161 5.46875 17.6633 5.46875C18.3105 5.46875 18.8352 4.94406 18.8352 4.29688V1.17188C18.8352 0.524687 18.3105 0 17.6633 0Z" fill="#FF7900"/>
<path d="M23.1321 0C22.4849 0 21.9602 0.524687 21.9602 1.17188V4.29688C21.9602 4.94406 22.4849 5.46875 23.1321 5.46875C23.7793 5.46875 24.304 4.94406 24.304 4.29688V1.17188C24.304 0.524687 23.7793 0 23.1321 0Z" fill="#FF7900"/>
<path d="M16.843 30.5469H10.3196C9.00567 30.5469 7.93677 29.478 7.93677 28.1641C7.93677 26.8502 9.00567 25.7812 10.3196 25.7812H12.7805C15.3652 25.7812 17.468 23.6784 17.468 21.0938C17.468 18.5091 15.3652 16.4062 12.7805 16.4062H9.18677C8.53958 16.4062 8.01489 16.9309 8.01489 17.5781C8.01489 18.2253 8.53958 18.75 9.18677 18.75H12.7805C14.0729 18.75 15.1243 19.8014 15.1243 21.0938C15.1243 22.3861 14.0729 23.4375 12.7805 23.4375H10.3196C7.71333 23.4375 5.59302 25.5578 5.59302 28.1641C5.59302 30.7703 7.71333 32.8906 10.3196 32.8906H16.843C17.4902 32.8906 18.0149 32.3659 18.0149 31.7188C18.0149 31.0716 17.4902 30.5469 16.843 30.5469Z" fill="#0066B2"/>
<path d="M14.968 25.2383V21.9336C15.0696 21.6727 15.1243 21.3898 15.1243 21.0938C15.1243 20.7977 15.0696 20.5148 14.968 20.2539V16.9492C16.454 17.7367 17.468 19.2992 17.468 21.0938C17.468 22.8883 16.454 24.4508 14.968 25.2383Z" fill="#004692"/>
<path d="M18.0149 31.7188C18.0149 32.3656 17.4899 32.8906 16.843 32.8906H14.968V30.5469H16.843C17.4899 30.5469 18.0149 31.0719 18.0149 31.7188Z" fill="#004692"/>
<path d="M36.9805 14.8763L33.666 11.5617C33.5141 11.4098 33.2659 11.4083 33.113 11.5612L29.7985 14.8758L29.3327 15.894L28.1406 16.5336L18.1975 26.4767C18.1544 26.5198 18.1223 26.5717 18.1036 26.6292C17.735 27.7344 16.8244 30.4651 16.4458 31.6005C16.3438 31.9063 16.6341 32.1953 16.9402 32.096C22.3081 30.3063 21.964 30.4443 22.0645 30.3437L32.0077 20.4006L32.4886 19.3673L33.6655 18.7428L36.98 15.4282C37.1325 15.2757 37.1325 15.0282 36.9805 14.8763Z" fill="#0095FF"/>
<path d="M28.1357 16.5352L29.7933 14.8776L33.6597 18.744L32.0021 20.4016L28.1357 16.5352Z" fill="#FFDA2D"/>
</svg>
