<svg width="40" height="40" viewBox="0 0 40 40" fill="none" xmlns="http://www.w3.org/2000/svg">
<path d="M17.1781 36.4845L19.0949 39.4811C19.5626 40.1782 20.5914 40.172 21.05 39.4679L22.9053 36.4845L20 35.7032L17.1781 36.4845Z" fill="#004692"/>
<path d="M22.9055 36.4845L21.05 39.4681C20.8055 39.8439 20.3977 40.0204 20 39.9978V35.7032L22.9055 36.4845Z" fill="#00204D"/>
<path d="M25.8203 31.797L20 31.0157L14.1797 31.797L17.1781 36.4845H22.9053L25.8203 31.797Z" fill="#FFDA2D"/>
<path d="M25.8203 31.797L22.9055 36.4845H20V31.0157L25.8203 31.797Z" fill="#FFAA17"/>
<path d="M25.8203 22.7025V31.797H21.1719L20 31.0157L18.8281 31.797H14.1797V22.7025H25.8203Z" fill="#4EC9FF"/>
<path d="M25.8203 22.7025V31.797H21.1719L20 31.0157V22.7025H25.8203Z" fill="#0095FF"/>
<path d="M18.8281 22.7025H21.1719V31.797H18.8281V22.7025Z" fill="#9BFCFF"/>
<path d="M20 22.7025H21.1719V31.797H20V22.7025Z" fill="#4EC9FF"/>
<path d="M35.8708 14.9986C37.3889 10.4796 33.4341 5.75495 28.5335 6.82261C27.6603 2.94212 24.1743 0 19.9805 0C15.8072 0 12.3167 2.89556 11.45 6.82706C6.56901 5.7437 2.5572 10.4561 4.09298 15.0069C2.20227 15.4585 0.781174 17.1026 0.781174 19.1852C0.781174 21.5554 2.70946 23.4837 5.07963 23.4837H34.9204C37.2905 23.4837 39.2188 21.5554 39.2188 19.1852C39.2188 17.0891 37.7771 15.4367 35.8708 14.9986Z" fill="#FFCCBD"/>
<path d="M39.2188 19.1852C39.2188 21.5556 37.2907 23.4837 34.9204 23.4837H20V0C24.1852 0.00937504 27.6618 2.94845 28.5336 6.82268C33.4344 5.75471 37.3891 10.4797 35.8712 14.9985C37.7774 15.4368 39.2188 17.0891 39.2188 19.1852Z" fill="#FFBDA9"/>
<path d="M34.9204 21.1399H26.6996C24.9397 21.1144 23.8464 19.9655 23.4097 18.8954C22.1447 15.7964 25.4495 12.9335 28.3242 14.4334C28.898 14.7328 29.6058 14.5103 29.9052 13.9365C30.2046 13.3627 29.9821 12.6549 29.4083 12.3555C24.5722 9.83243 19.1626 14.6921 21.2397 19.7812C21.4418 20.2765 21.7001 20.7313 22.0059 21.14H17.9551C18.2608 20.7313 18.519 20.2765 18.7212 19.7812C20.7991 14.6904 15.3866 9.83353 10.5526 12.3555C9.97878 12.6549 9.75636 13.3628 10.0557 13.9365C10.3551 14.5103 11.0629 14.7328 11.6368 14.4334C14.5098 12.9342 17.8169 15.7946 16.5512 18.8954C16.1145 19.9654 15.0212 21.1144 13.2613 21.1399H5.07962C4.0018 21.1399 3.12492 20.263 3.12492 19.1852C3.12492 17.8876 4.30446 17.0694 5.41423 17.2574C7.3101 19.423 10.7685 20.0922 13.5075 18.526C14.0693 18.2047 14.2643 17.4888 13.9431 16.927C13.6218 16.3651 12.9058 16.1701 12.3441 16.4914C9.04635 18.3772 5.12181 15.2403 6.32666 11.7094C7.114 9.40196 9.7519 8.36251 11.8879 9.45571C12.6466 9.84392 13.5574 9.3161 13.5928 8.46102C13.7347 5.03078 16.5405 2.34381 19.9805 2.34381C23.424 2.34381 26.2419 5.02648 26.3958 8.4511C26.4339 9.29931 27.3356 9.82689 28.0937 9.44509C30.2085 8.37985 32.8473 9.38634 33.6373 11.7172C34.8376 15.2589 30.9018 18.3697 27.6169 16.4913C27.0551 16.17 26.3391 16.3651 26.0179 16.9269C25.6967 17.4887 25.8917 18.2047 26.4535 18.5259C29.1324 20.0577 32.4652 19.5173 34.5254 17.2689C35.6428 17.0418 36.8751 17.8527 36.8751 19.1851C36.8751 20.263 35.9982 21.1399 34.9204 21.1399Z" fill="#FFEDE4"/>
<path d="M36.875 19.1852C36.875 20.2633 35.9984 21.1398 34.9203 21.1398H26.6992C24.9398 21.1141 23.8461 19.9656 23.4094 18.8953C22.1445 15.7961 25.4492 12.9336 28.3242 14.4336C28.8977 14.7328 29.6055 14.5102 29.9055 13.9367C30.2047 13.3625 29.982 12.6547 29.4086 12.3555C24.5719 9.83203 19.1625 14.6922 21.2398 19.7813C21.4422 20.2766 21.7 20.7313 22.0055 21.1398H20V2.34375C23.4352 2.35391 26.2422 5.03281 26.3961 8.45078C26.4336 9.29922 27.3352 9.82656 28.0938 9.44531C30.2086 8.37969 32.8469 9.38594 33.6375 11.7172C34.8375 15.2586 30.9016 18.3695 27.6172 16.4914C27.0547 16.1703 26.3391 16.3648 26.018 16.9266C25.6969 17.4891 25.8914 18.2047 26.4531 18.5258C29.132 20.0578 32.4648 19.5172 34.525 17.2688C35.643 17.0422 36.875 17.8523 36.875 19.1852Z" fill="#FFDDCE"/>
</svg>
