<svg width="40" height="40" viewBox="0 0 40 40" fill="none" xmlns="http://www.w3.org/2000/svg">
<g clip-path="url(#clip0_79_3777)">
<path d="M6.91 3.51562C6.42453 2.12977 5.10422 1.13281 3.55469 1.13281C1.59461 1.13281 0 2.72742 0 4.6875C0 6.64758 1.59461 8.24219 3.55469 8.24219C5.10422 8.24219 6.42453 7.24523 6.91 5.85938H20V3.51562H6.91Z" fill="#FFDA2D"/>
<path d="M36.4453 1.13281C34.8958 1.13281 33.5755 2.12977 33.09 3.51562H20V5.85938H33.09C33.5755 7.24523 34.8958 8.24219 36.4453 8.24219C38.4054 8.24219 40 6.64758 40 4.6875C40 2.72742 38.4054 1.13281 36.4453 1.13281Z" fill="#FFAA17"/>
<path d="M28.4082 29.375L20 28.5938L11.6977 29.375L7.23315 38.3041C6.84424 39.0817 7.41034 40 8.28128 40H31.7188C32.5828 40 33.1521 39.0929 32.7718 38.3141L28.4082 29.375Z" fill="#E63950"/>
<path d="M31.7188 40H20V28.5938L28.4086 29.375L32.7719 38.3141C33.1523 39.093 32.5828 40 31.7188 40Z" fill="#CD0000"/>
<path d="M20 3.51562C29.4703 3.51562 37.2139 10.9862 37.6023 20.3906H35.2555C34.8672 12.3125 28.1734 5.85938 20 5.85938V3.51562Z" fill="#0095FF"/>
<path d="M20 5.85938C11.8266 5.85938 5.13281 12.3125 4.74453 20.3906H2.39844C2.78445 11.003 10.5114 3.51562 20 3.51562V5.85938Z" fill="#4EC9FF"/>
<path d="M6.01562 20H1.17188C0.524687 20 0 20.5247 0 21.1719V26.0156C0 26.6628 0.524687 27.1875 1.17188 27.1875H6.01562C6.66281 27.1875 7.1875 26.6628 7.1875 26.0156V21.1719C7.1875 20.5247 6.66281 20 6.01562 20Z" fill="#9BFCFF"/>
<path d="M38.8281 20H33.9844C33.3372 20 32.8125 20.5247 32.8125 21.1719V26.0156C32.8125 26.6628 33.3372 27.1875 33.9844 27.1875H38.8281C39.4753 27.1875 40 26.6628 40 26.0156V21.1719C40 20.5247 39.4753 20 38.8281 20Z" fill="#4EC9FF"/>
<path d="M23.5938 0H16.4062C15.7591 0 15.2344 0.524687 15.2344 1.17188V8.35938C15.2344 9.00656 15.7591 9.53125 16.4062 9.53125H23.5938C24.2409 9.53125 24.7656 9.00656 24.7656 8.35938V1.17188C24.7656 0.524687 24.2409 0 23.5938 0Z" fill="#9BFCFF"/>
<path d="M24.7656 1.17188V8.35938C24.7656 9.00625 24.2406 9.53125 23.5938 9.53125H20V0H23.5938C24.2406 0 24.7656 0.525 24.7656 1.17188Z" fill="#4EC9FF"/>
<path d="M24.8437 22.073V14.0509C25.4168 13.9743 25.8593 13.4847 25.8593 12.8906C25.8593 12.2434 25.3347 11.7188 24.6875 11.7188H15.3125C14.6653 11.7188 14.1406 12.2434 14.1406 12.8906C14.1406 13.5378 14.6653 14.0625 15.3125 14.0625V22.1452L11.6976 29.375H28.4083L24.8437 22.073Z" fill="#EDF5FF"/>
<path d="M28.4086 29.375H20V11.7188H24.6875C25.3344 11.7188 25.8594 12.2438 25.8594 12.8906C25.8594 13.4844 25.4172 13.9742 24.8438 14.0508V22.0727L28.4086 29.375Z" fill="#CEE8FF"/>
</g>
<defs>
<clipPath id="clip0_79_3777">
<rect width="40" height="40" fill="white"/>
</clipPath>
</defs>
</svg>
